Coordinates
version=1
nRows=8
nColumns=34
inDegrees=yes

Units are S.I. units (second, meters, Newtons, ...)
If the header above contains a line with 'inDegrees', this indicates whether rotational values are in degrees (yes) or radians (no).

endheader
time	pelvis_tilt	pelvis_list	pelvis_rotation	pelvis_tx	pelvis_ty	pelvis_tz	hip_flexion_r	hip_adduction_r	hip_rotation_r	knee_angle_r	ankle_angle_r	subtalar_angle_r	mtp_angle_r	hip_flexion_l	hip_adduction_l	hip_rotation_l	knee_angle_l	ankle_angle_l	subtalar_angle_l	mtp_angle_l	lumbar_extension	lumbar_bending	lumbar_rotation	arm_flex_r	arm_add_r	arm_rot_r	elbow_flex_r	pro_sup_r	arm_flex_l	arm_add_l	arm_rot_l	elbow_flex_l	pro_sup_l
      0.00000000	    -20.25895930	     -5.79728983	      1.16413580	     -0.00458437	      0.48790098	     -0.42047517	    107.45468481	    -17.68244247	      5.98197199	    131.84253490	     21.29554792	    -32.68361742	      0.00000000	    112.82676399	    -21.58185215	     25.60670845	    129.29548544	     33.03459876	     -9.53530707	      0.00000000	    -40.95902842	     -3.03162226	      2.76518073	     80.64817390	     -1.90564534	     27.25386591	    100.29396769	     94.94720879	     76.71942323	      1.27636719	     33.34796655	    100.87129025	     94.39790352
      0.01666670	    -22.44805800	     -4.34845829	      2.17260701	     -0.00660320	      0.50272209	     -0.42076492	    107.07964060	    -15.95135644	      4.17061028	    128.21764710	     20.17255303	    -35.00000000	      0.00000000	    110.78927652	    -25.00598525	     19.52884264	    127.32697633	     34.41607529	     -3.45415292	      0.00000000	    -41.73833698	     -3.46062051	      1.28609851	     82.43327528	     -0.99072871	     25.33655427	    100.00738747	     96.91413285	     79.77135155	     -2.25843371	     33.47357641	    103.51428089	     90.68866854
      0.03333330	    -22.42950109	     -2.68523252	      2.70303616	     -0.00538120	      0.51025322	     -0.41889504	    108.18134256	    -16.33178156	      5.44003636	    128.11881258	     23.58431567	    -35.00000000	      0.00000000	    108.23688494	    -26.81380395	     15.32686429	    125.75207386	     34.39882569	     -2.70541117	      0.00000000	    -43.37891741	     -3.63487650	     -0.29933773	     83.33460610	     -0.03421871	     26.60113545	    101.73960287	    100.38245390	     80.66350934	     -3.93902845	     31.00534990	    107.98879517	     87.09593394
      0.05000000	    -22.17740201	     -2.23921558	      2.43907436	     -0.00728199	      0.51549461	     -0.41609102	    108.09122974	    -15.94986603	      5.17074306	    127.77555437	     24.95594464	    -35.00000000	      0.00000000	    106.88623652	    -28.20186313	     13.32839345	    124.68257475	     33.03680728	     -5.21504952	      0.00000000	    -44.93717910	     -4.38652630	     -0.39902695	     84.03225399	     -0.67645032	     27.17810221	    104.46054470	    100.90803132	     82.00987782	     -3.89203705	     30.35380826	    109.91366485	     86.97103426
      0.06666670	    -22.13097251	     -1.56224702	      1.98514335	     -0.00476685	      0.52055246	     -0.41676699	    107.35664267	    -15.13275256	      5.13583100	    127.36989478	     26.58362492	    -35.00000000	      0.00000000	    105.37885830	    -29.43042562	     11.48403660	    123.66534998	     33.04733937	     -5.81133646	      0.00000000	    -45.70705761	     -4.93674384	     -0.78519454	     83.96922943	     -0.19651719	     27.59535100	    105.63942905	    108.24576058	     81.71769362	     -4.30404326	     30.08785596	    111.72084279	     88.59985945
      0.08333330	    -21.86747689	     -1.15098584	      1.44498638	     -0.00647931	      0.52230619	     -0.41596968	    106.77940471	    -14.61109135	      5.10333565	    127.10750219	     27.10986785	    -35.00000000	      0.00000000	    104.60891230	    -30.17373019	     10.47737952	    123.29091882	     32.69838957	     -7.17003123	      0.00000000	    -46.39257875	     -5.49990850	     -0.74957884	     84.25322514	     -0.03488295	     28.17672258	    106.43631286	    108.49788116	     81.81180716	     -4.29745487	     30.00788169	    112.51399369	     88.96583720
      0.10000000	    -21.59746219	     -0.92073090	      1.07207104	     -0.00735693	      0.52402004	     -0.41435020	    106.32485594	    -14.24119622	      5.19687900	    126.87155975	     27.43845496	    -35.00000000	      0.00000000	    104.06283873	    -30.74043099	      9.91981617	    123.05240695	     32.52625459	     -7.85982581	      0.00000000	    -46.86263337	     -5.96462775	     -0.71427712	     84.26653456	      0.13649893	     28.44957880	    106.74077403	    108.73493406	     81.63096706	     -4.40436657	     30.10887448	    113.05996204	     89.36042503
      0.11666670	    -21.21021153	     -0.62193306	      0.93858737	     -0.00728474	      0.52695321	     -0.41473101	    105.77556794	    -14.18211831	      5.44710116	    126.60996338	     27.34702678	    -35.00000000	      0.00000000	    103.08209897	    -30.98972676	      9.12879881	    122.66370363	     32.16117604	     -8.68074617	      0.00000000	    -47.55104478	     -6.22291170	     -0.80672317	     84.44764983	      0.48141711	     28.73342353	    107.23781755	    109.30087053	     81.60391541	     -4.50018557	     30.47771171	    113.99015316	     90.37164639
